<?xml version="1.0" encoding="UTF-8"?>
<svg xmlns="http://www.w3.org/2000/svg" 
     width="500" height="500" 
     viewBox="0 0 500 500">
  <rect width="100%" height="100%" fill="white"/>
  <g transform="translate(250, 250) scale(1, -1)">
    <line x1="0.00" y1="-100.00" x2="0.00" y2="-20.00" stroke="black" stroke-width="1"/>
    <line x1="0.00" y1="-20.00" x2="-28.00" y2="28.50" stroke="black" stroke-width="1"/>
    <line x1="-28.00" y1="28.50" x2="-61.95" y2="48.10" stroke="black" stroke-width="1"/>
    <line x1="-61.95" y1="48.10" x2="-89.39" y2="48.10" stroke="black" stroke-width="1"/>
    <line x1="-89.39" y1="48.10" x2="-106.02" y2="38.49" stroke="black" stroke-width="1"/>
    <line x1="-106.02" y1="38.49" x2="-112.75" y2="26.85" stroke="black" stroke-width="1"/>
    <line x1="-112.75" y1="26.85" x2="-112.75" y2="17.44" stroke="black" stroke-width="1"/>
    <line x1="-112.75" y1="17.44" x2="-112.75" y2="26.85" stroke="black" stroke-width="1"/>
    <line x1="-112.75" y1="26.85" x2="-120.90" y2="22.14" stroke="black" stroke-width="1"/>
    <line x1="-120.90" y1="22.14" x2="-112.75" y2="26.85" stroke="black" stroke-width="1"/>
    <line x1="-112.75" y1="26.85" x2="-106.02" y2="38.49" stroke="black" stroke-width="1"/>
    <line x1="-106.02" y1="38.49" x2="-119.47" y2="38.49" stroke="black" stroke-width="1"/>
    <line x1="-119.47" y1="38.49" x2="-127.62" y2="33.79" stroke="black" stroke-width="1"/>
    <line x1="-127.62" y1="33.79" x2="-119.47" y2="38.49" stroke="black" stroke-width="1"/>
    <line x1="-119.47" y1="38.49" x2="-127.62" y2="43.20" stroke="black" stroke-width="1"/>
    <line x1="-127.62" y1="43.20" x2="-119.47" y2="38.49" stroke="black" stroke-width="1"/>
    <line x1="-119.47" y1="38.49" x2="-106.02" y2="38.49" stroke="black" stroke-width="1"/>
    <line x1="-106.02" y1="38.49" x2="-89.39" y2="48.10" stroke="black" stroke-width="1"/>
    <line x1="-89.39" y1="48.10" x2="-106.02" y2="57.70" stroke="black" stroke-width="1"/>
    <line x1="-106.02" y1="57.70" x2="-119.47" y2="57.70" stroke="black" stroke-width="1"/>
    <line x1="-119.47" y1="57.70" x2="-127.62" y2="53.00" stroke="black" stroke-width="1"/>
    <line x1="-127.62" y1="53.00" x2="-119.47" y2="57.70" stroke="black" stroke-width="1"/>
    <line x1="-119.47" y1="57.70" x2="-127.62" y2="62.41" stroke="black" stroke-width="1"/>
    <line x1="-127.62" y1="62.41" x2="-119.47" y2="57.70" stroke="black" stroke-width="1"/>
    <line x1="-119.47" y1="57.70" x2="-106.02" y2="57.70" stroke="black" stroke-width="1"/>
    <line x1="-106.02" y1="57.70" x2="-112.75" y2="69.35" stroke="black" stroke-width="1"/>
    <line x1="-112.75" y1="69.35" x2="-120.90" y2="74.05" stroke="black" stroke-width="1"/>
    <line x1="-120.90" y1="74.05" x2="-112.75" y2="69.35" stroke="black" stroke-width="1"/>
    <line x1="-112.75" y1="69.35" x2="-112.75" y2="78.76" stroke="black" stroke-width="1"/>
    <line x1="-112.75" y1="78.76" x2="-112.75" y2="69.35" stroke="black" stroke-width="1"/>
    <line x1="-112.75" y1="69.35" x2="-106.02" y2="57.70" stroke="black" stroke-width="1"/>
    <line x1="-106.02" y1="57.70" x2="-89.39" y2="48.10" stroke="black" stroke-width="1"/>
    <line x1="-89.39" y1="48.10" x2="-61.95" y2="48.10" stroke="black" stroke-width="1"/>
    <line x1="-61.95" y1="48.10" x2="-75.67" y2="71.86" stroke="black" stroke-width="1"/>
    <line x1="-75.67" y1="71.86" x2="-92.30" y2="81.47" stroke="black" stroke-width="1"/>
    <line x1="-92.30" y1="81.47" x2="-105.75" y2="81.47" stroke="black" stroke-width="1"/>
    <line x1="-105.75" y1="81.47" x2="-113.90" y2="76.76" stroke="black" stroke-width="1"/>
    <line x1="-113.90" y1="76.76" x2="-105.75" y2="81.47" stroke="black" stroke-width="1"/>
    <line x1="-105.75" y1="81.47" x2="-113.90" y2="86.17" stroke="black" stroke-width="1"/>
    <line x1="-113.90" y1="86.17" x2="-105.75" y2="81.47" stroke="black" stroke-width="1"/>
    <line x1="-105.75" y1="81.47" x2="-92.30" y2="81.47" stroke="black" stroke-width="1"/>
    <line x1="-92.30" y1="81.47" x2="-99.03" y2="93.11" stroke="black" stroke-width="1"/>
    <line x1="-99.03" y1="93.11" x2="-107.18" y2="97.82" stroke="black" stroke-width="1"/>
    <line x1="-107.18" y1="97.82" x2="-99.03" y2="93.11" stroke="black" stroke-width="1"/>
    <line x1="-99.03" y1="93.11" x2="-99.03" y2="102.52" stroke="black" stroke-width="1"/>
    <line x1="-99.03" y1="102.52" x2="-99.03" y2="93.11" stroke="black" stroke-width="1"/>
    <line x1="-99.03" y1="93.11" x2="-92.30" y2="81.47" stroke="black" stroke-width="1"/>
    <line x1="-92.30" y1="81.47" x2="-75.67" y2="71.86" stroke="black" stroke-width="1"/>
    <line x1="-75.67" y1="71.86" x2="-75.67" y2="91.07" stroke="black" stroke-width="1"/>
    <line x1="-75.67" y1="91.07" x2="-82.39" y2="102.71" stroke="black" stroke-width="1"/>
    <line x1="-82.39" y1="102.71" x2="-90.54" y2="107.42" stroke="black" stroke-width="1"/>
    <line x1="-90.54" y1="107.42" x2="-82.39" y2="102.71" stroke="black" stroke-width="1"/>
    <line x1="-82.39" y1="102.71" x2="-82.39" y2="112.13" stroke="black" stroke-width="1"/>
    <line x1="-82.39" y1="112.13" x2="-82.39" y2="102.71" stroke="black" stroke-width="1"/>
    <line x1="-82.39" y1="102.71" x2="-75.67" y2="91.07" stroke="black" stroke-width="1"/>
    <line x1="-75.67" y1="91.07" x2="-68.95" y2="102.71" stroke="black" stroke-width="1"/>
    <line x1="-68.95" y1="102.71" x2="-68.95" y2="112.13" stroke="black" stroke-width="1"/>
    <line x1="-68.95" y1="112.13" x2="-68.95" y2="102.71" stroke="black" stroke-width="1"/>
    <line x1="-68.95" y1="102.71" x2="-60.79" y2="107.42" stroke="black" stroke-width="1"/>
    <line x1="-60.79" y1="107.42" x2="-68.95" y2="102.71" stroke="black" stroke-width="1"/>
    <line x1="-68.95" y1="102.71" x2="-75.67" y2="91.07" stroke="black" stroke-width="1"/>
    <line x1="-75.67" y1="91.07" x2="-75.67" y2="71.86" stroke="black" stroke-width="1"/>
    <line x1="-75.67" y1="71.86" x2="-61.95" y2="48.10" stroke="black" stroke-width="1"/>
    <line x1="-61.95" y1="48.10" x2="-28.00" y2="28.50" stroke="black" stroke-width="1"/>
    <line x1="-28.00" y1="28.50" x2="-28.00" y2="67.70" stroke="black" stroke-width="1"/>
    <line x1="-28.00" y1="67.70" x2="-41.72" y2="91.46" stroke="black" stroke-width="1"/>
    <line x1="-41.72" y1="91.46" x2="-58.35" y2="101.07" stroke="black" stroke-width="1"/>
    <line x1="-58.35" y1="101.07" x2="-71.80" y2="101.07" stroke="black" stroke-width="1"/>
    <line x1="-71.80" y1="101.07" x2="-79.95" y2="96.36" stroke="black" stroke-width="1"/>
    <line x1="-79.95" y1="96.36" x2="-71.80" y2="101.07" stroke="black" stroke-width="1"/>
    <line x1="-71.80" y1="101.07" x2="-79.95" y2="105.77" stroke="black" stroke-width="1"/>
    <line x1="-79.95" y1="105.77" x2="-71.80" y2="101.07" stroke="black" stroke-width="1"/>
    <line x1="-71.80" y1="101.07" x2="-58.35" y2="101.07" stroke="black" stroke-width="1"/>
    <line x1="-58.35" y1="101.07" x2="-65.08" y2="112.71" stroke="black" stroke-width="1"/>
    <line x1="-65.08" y1="112.71" x2="-73.23" y2="117.42" stroke="black" stroke-width="1"/>
    <line x1="-73.23" y1="117.42" x2="-65.08" y2="112.71" stroke="black" stroke-width="1"/>
    <line x1="-65.08" y1="112.71" x2="-65.08" y2="122.12" stroke="black" stroke-width="1"/>
    <line x1="-65.08" y1="122.12" x2="-65.08" y2="112.71" stroke="black" stroke-width="1"/>
    <line x1="-65.08" y1="112.71" x2="-58.35" y2="101.07" stroke="black" stroke-width="1"/>
    <line x1="-58.35" y1="101.07" x2="-41.72" y2="91.46" stroke="black" stroke-width="1"/>
    <line x1="-41.72" y1="91.46" x2="-41.72" y2="110.67" stroke="black" stroke-width="1"/>
    <line x1="-41.72" y1="110.67" x2="-48.44" y2="122.31" stroke="black" stroke-width="1"/>
    <line x1="-48.44" y1="122.31" x2="-56.59" y2="127.02" stroke="black" stroke-width="1"/>
    <line x1="-56.59" y1="127.02" x2="-48.44" y2="122.31" stroke="black" stroke-width="1"/>
    <line x1="-48.44" y1="122.31" x2="-48.44" y2="131.73" stroke="black" stroke-width="1"/>
    <line x1="-48.44" y1="131.73" x2="-48.44" y2="122.31" stroke="black" stroke-width="1"/>
    <line x1="-48.44" y1="122.31" x2="-41.72" y2="110.67" stroke="black" stroke-width="1"/>
    <line x1="-41.72" y1="110.67" x2="-35.00" y2="122.31" stroke="black" stroke-width="1"/>
    <line x1="-35.00" y1="122.31" x2="-35.00" y2="131.73" stroke="black" stroke-width="1"/>
    <line x1="-35.00" y1="131.73" x2="-35.00" y2="122.31" stroke="black" stroke-width="1"/>
    <line x1="-35.00" y1="122.31" x2="-26.85" y2="127.02" stroke="black" stroke-width="1"/>
    <line x1="-26.85" y1="127.02" x2="-35.00" y2="122.31" stroke="black" stroke-width="1"/>
    <line x1="-35.00" y1="122.31" x2="-41.72" y2="110.67" stroke="black" stroke-width="1"/>
    <line x1="-41.72" y1="110.67" x2="-41.72" y2="91.46" stroke="black" stroke-width="1"/>
    <line x1="-41.72" y1="91.46" x2="-28.00" y2="67.70" stroke="black" stroke-width="1"/>
    <line x1="-28.00" y1="67.70" x2="-14.28" y2="91.46" stroke="black" stroke-width="1"/>
    <line x1="-14.28" y1="91.46" x2="-14.28" y2="110.67" stroke="black" stroke-width="1"/>
    <line x1="-14.28" y1="110.67" x2="-21.00" y2="122.31" stroke="black" stroke-width="1"/>
    <line x1="-21.00" y1="122.31" x2="-29.15" y2="127.02" stroke="black" stroke-width="1"/>
    <line x1="-29.15" y1="127.02" x2="-21.00" y2="122.31" stroke="black" stroke-width="1"/>
    <line x1="-21.00" y1="122.31" x2="-21.00" y2="131.73" stroke="black" stroke-width="1"/>
    <line x1="-21.00" y1="131.73" x2="-21.00" y2="122.31" stroke="black" stroke-width="1"/>
    <line x1="-21.00" y1="122.31" x2="-14.28" y2="110.67" stroke="black" stroke-width="1"/>
    <line x1="-14.28" y1="110.67" x2="-7.56" y2="122.31" stroke="black" stroke-width="1"/>
    <line x1="-7.56" y1="122.31" x2="-7.56" y2="131.73" stroke="black" stroke-width="1"/>
    <line x1="-7.56" y1="131.73" x2="-7.56" y2="122.31" stroke="black" stroke-width="1"/>
    <line x1="-7.56" y1="122.31" x2="0.59" y2="127.02" stroke="black" stroke-width="1"/>
    <line x1="0.59" y1="127.02" x2="-7.56" y2="122.31" stroke="black" stroke-width="1"/>
    <line x1="-7.56" y1="122.31" x2="-14.28" y2="110.67" stroke="black" stroke-width="1"/>
    <line x1="-14.28" y1="110.67" x2="-14.28" y2="91.46" stroke="black" stroke-width="1"/>
    <line x1="-14.28" y1="91.46" x2="2.35" y2="101.07" stroke="black" stroke-width="1"/>
    <line x1="2.35" y1="101.07" x2="9.08" y2="112.71" stroke="black" stroke-width="1"/>
    <line x1="9.08" y1="112.71" x2="9.08" y2="122.12" stroke="black" stroke-width="1"/>
    <line x1="9.08" y1="122.12" x2="9.08" y2="112.71" stroke="black" stroke-width="1"/>
    <line x1="9.08" y1="112.71" x2="17.23" y2="117.42" stroke="black" stroke-width="1"/>
    <line x1="17.23" y1="117.42" x2="9.08" y2="112.71" stroke="black" stroke-width="1"/>
    <line x1="9.08" y1="112.71" x2="2.35" y2="101.07" stroke="black" stroke-width="1"/>
    <line x1="2.35" y1="101.07" x2="15.80" y2="101.07" stroke="black" stroke-width="1"/>
    <line x1="15.80" y1="101.07" x2="23.95" y2="105.77" stroke="black" stroke-width="1"/>
    <line x1="23.95" y1="105.77" x2="15.80" y2="101.07" stroke="black" stroke-width="1"/>
    <line x1="15.80" y1="101.07" x2="23.95" y2="96.36" stroke="black" stroke-width="1"/>
    <line x1="23.95" y1="96.36" x2="15.80" y2="101.07" stroke="black" stroke-width="1"/>
    <line x1="15.80" y1="101.07" x2="2.35" y2="101.07" stroke="black" stroke-width="1"/>
    <line x1="2.35" y1="101.07" x2="-14.28" y2="91.46" stroke="black" stroke-width="1"/>
    <line x1="-14.28" y1="91.46" x2="-28.00" y2="67.70" stroke="black" stroke-width="1"/>
    <line x1="-28.00" y1="67.70" x2="-28.00" y2="28.50" stroke="black" stroke-width="1"/>
    <line x1="-28.00" y1="28.50" x2="0.00" y2="-20.00" stroke="black" stroke-width="1"/>
    <line x1="0.00" y1="-20.00" x2="28.00" y2="28.50" stroke="black" stroke-width="1"/>
    <line x1="28.00" y1="28.50" x2="28.00" y2="67.70" stroke="black" stroke-width="1"/>
    <line x1="28.00" y1="67.70" x2="14.28" y2="91.46" stroke="black" stroke-width="1"/>
    <line x1="14.28" y1="91.46" x2="-2.35" y2="101.07" stroke="black" stroke-width="1"/>
    <line x1="-2.35" y1="101.07" x2="-15.80" y2="101.07" stroke="black" stroke-width="1"/>
    <line x1="-15.80" y1="101.07" x2="-23.95" y2="96.36" stroke="black" stroke-width="1"/>
    <line x1="-23.95" y1="96.36" x2="-15.80" y2="101.07" stroke="black" stroke-width="1"/>
    <line x1="-15.80" y1="101.07" x2="-23.95" y2="105.77" stroke="black" stroke-width="1"/>
    <line x1="-23.95" y1="105.77" x2="-15.80" y2="101.07" stroke="black" stroke-width="1"/>
    <line x1="-15.80" y1="101.07" x2="-2.35" y2="101.07" stroke="black" stroke-width="1"/>
    <line x1="-2.35" y1="101.07" x2="-9.08" y2="112.71" stroke="black" stroke-width="1"/>
    <line x1="-9.08" y1="112.71" x2="-17.23" y2="117.42" stroke="black" stroke-width="1"/>
    <line x1="-17.23" y1="117.42" x2="-9.08" y2="112.71" stroke="black" stroke-width="1"/>
    <line x1="-9.08" y1="112.71" x2="-9.08" y2="122.12" stroke="black" stroke-width="1"/>
    <line x1="-9.08" y1="122.12" x2="-9.08" y2="112.71" stroke="black" stroke-width="1"/>
    <line x1="-9.08" y1="112.71" x2="-2.35" y2="101.07" stroke="black" stroke-width="1"/>
    <line x1="-2.35" y1="101.07" x2="14.28" y2="91.46" stroke="black" stroke-width="1"/>
    <line x1="14.28" y1="91.46" x2="14.28" y2="110.67" stroke="black" stroke-width="1"/>
    <line x1="14.28" y1="110.67" x2="7.56" y2="122.31" stroke="black" stroke-width="1"/>
    <line x1="7.56" y1="122.31" x2="-0.59" y2="127.02" stroke="black" stroke-width="1"/>
    <line x1="-0.59" y1="127.02" x2="7.56" y2="122.31" stroke="black" stroke-width="1"/>
    <line x1="7.56" y1="122.31" x2="7.56" y2="131.73" stroke="black" stroke-width="1"/>
    <line x1="7.56" y1="131.73" x2="7.56" y2="122.31" stroke="black" stroke-width="1"/>
    <line x1="7.56" y1="122.31" x2="14.28" y2="110.67" stroke="black" stroke-width="1"/>
    <line x1="14.28" y1="110.67" x2="21.00" y2="122.31" stroke="black" stroke-width="1"/>
    <line x1="21.00" y1="122.31" x2="21.00" y2="131.73" stroke="black" stroke-width="1"/>
    <line x1="21.00" y1="131.73" x2="21.00" y2="122.31" stroke="black" stroke-width="1"/>
    <line x1="21.00" y1="122.31" x2="29.15" y2="127.02" stroke="black" stroke-width="1"/>
    <line x1="29.15" y1="127.02" x2="21.00" y2="122.31" stroke="black" stroke-width="1"/>
    <line x1="21.00" y1="122.31" x2="14.28" y2="110.67" stroke="black" stroke-width="1"/>
    <line x1="14.28" y1="110.67" x2="14.28" y2="91.46" stroke="black" stroke-width="1"/>
    <line x1="14.28" y1="91.46" x2="28.00" y2="67.70" stroke="black" stroke-width="1"/>
    <line x1="28.00" y1="67.70" x2="41.72" y2="91.46" stroke="black" stroke-width="1"/>
    <line x1="41.72" y1="91.46" x2="41.72" y2="110.67" stroke="black" stroke-width="1"/>
    <line x1="41.72" y1="110.67" x2="35.00" y2="122.31" stroke="black" stroke-width="1"/>
    <line x1="35.00" y1="122.31" x2="26.85" y2="127.02" stroke="black" stroke-width="1"/>
    <line x1="26.85" y1="127.02" x2="35.00" y2="122.31" stroke="black" stroke-width="1"/>
    <line x1="35.00" y1="122.31" x2="35.00" y2="131.73" stroke="black" stroke-width="1"/>
    <line x1="35.00" y1="131.73" x2="35.00" y2="122.31" stroke="black" stroke-width="1"/>
    <line x1="35.00" y1="122.31" x2="41.72" y2="110.67" stroke="black" stroke-width="1"/>
    <line x1="41.72" y1="110.67" x2="48.44" y2="122.31" stroke="black" stroke-width="1"/>
    <line x1="48.44" y1="122.31" x2="48.44" y2="131.73" stroke="black" stroke-width="1"/>
    <line x1="48.44" y1="131.73" x2="48.44" y2="122.31" stroke="black" stroke-width="1"/>
    <line x1="48.44" y1="122.31" x2="56.59" y2="127.02" stroke="black" stroke-width="1"/>
    <line x1="56.59" y1="127.02" x2="48.44" y2="122.31" stroke="black" stroke-width="1"/>
    <line x1="48.44" y1="122.31" x2="41.72" y2="110.67" stroke="black" stroke-width="1"/>
    <line x1="41.72" y1="110.67" x2="41.72" y2="91.46" stroke="black" stroke-width="1"/>
    <line x1="41.72" y1="91.46" x2="58.35" y2="101.07" stroke="black" stroke-width="1"/>
    <line x1="58.35" y1="101.07" x2="65.08" y2="112.71" stroke="black" stroke-width="1"/>
    <line x1="65.08" y1="112.71" x2="65.08" y2="122.12" stroke="black" stroke-width="1"/>
    <line x1="65.08" y1="122.12" x2="65.08" y2="112.71" stroke="black" stroke-width="1"/>
    <line x1="65.08" y1="112.71" x2="73.23" y2="117.42" stroke="black" stroke-width="1"/>
    <line x1="73.23" y1="117.42" x2="65.08" y2="112.71" stroke="black" stroke-width="1"/>
    <line x1="65.08" y1="112.71" x2="58.35" y2="101.07" stroke="black" stroke-width="1"/>
    <line x1="58.35" y1="101.07" x2="71.80" y2="101.07" stroke="black" stroke-width="1"/>
    <line x1="71.80" y1="101.07" x2="79.95" y2="105.77" stroke="black" stroke-width="1"/>
    <line x1="79.95" y1="105.77" x2="71.80" y2="101.07" stroke="black" stroke-width="1"/>
    <line x1="71.80" y1="101.07" x2="79.95" y2="96.36" stroke="black" stroke-width="1"/>
    <line x1="79.95" y1="96.36" x2="71.80" y2="101.07" stroke="black" stroke-width="1"/>
    <line x1="71.80" y1="101.07" x2="58.35" y2="101.07" stroke="black" stroke-width="1"/>
    <line x1="58.35" y1="101.07" x2="41.72" y2="91.46" stroke="black" stroke-width="1"/>
    <line x1="41.72" y1="91.46" x2="28.00" y2="67.70" stroke="black" stroke-width="1"/>
    <line x1="28.00" y1="67.70" x2="28.00" y2="28.50" stroke="black" stroke-width="1"/>
    <line x1="28.00" y1="28.50" x2="61.95" y2="48.10" stroke="black" stroke-width="1"/>
    <line x1="61.95" y1="48.10" x2="75.67" y2="71.86" stroke="black" stroke-width="1"/>
    <line x1="75.67" y1="71.86" x2="75.67" y2="91.07" stroke="black" stroke-width="1"/>
    <line x1="75.67" y1="91.07" x2="68.95" y2="102.71" stroke="black" stroke-width="1"/>
    <line x1="68.95" y1="102.71" x2="60.79" y2="107.42" stroke="black" stroke-width="1"/>
    <line x1="60.79" y1="107.42" x2="68.95" y2="102.71" stroke="black" stroke-width="1"/>
    <line x1="68.95" y1="102.71" x2="68.95" y2="112.13" stroke="black" stroke-width="1"/>
    <line x1="68.95" y1="112.13" x2="68.95" y2="102.71" stroke="black" stroke-width="1"/>
    <line x1="68.95" y1="102.71" x2="75.67" y2="91.07" stroke="black" stroke-width="1"/>
    <line x1="75.67" y1="91.07" x2="82.39" y2="102.71" stroke="black" stroke-width="1"/>
    <line x1="82.39" y1="102.71" x2="82.39" y2="112.13" stroke="black" stroke-width="1"/>
    <line x1="82.39" y1="112.13" x2="82.39" y2="102.71" stroke="black" stroke-width="1"/>
    <line x1="82.39" y1="102.71" x2="90.54" y2="107.42" stroke="black" stroke-width="1"/>
    <line x1="90.54" y1="107.42" x2="82.39" y2="102.71" stroke="black" stroke-width="1"/>
    <line x1="82.39" y1="102.71" x2="75.67" y2="91.07" stroke="black" stroke-width="1"/>
    <line x1="75.67" y1="91.07" x2="75.67" y2="71.86" stroke="black" stroke-width="1"/>
    <line x1="75.67" y1="71.86" x2="92.30" y2="81.47" stroke="black" stroke-width="1"/>
    <line x1="92.30" y1="81.47" x2="99.03" y2="93.11" stroke="black" stroke-width="1"/>
    <line x1="99.03" y1="93.11" x2="99.03" y2="102.52" stroke="black" stroke-width="1"/>
    <line x1="99.03" y1="102.52" x2="99.03" y2="93.11" stroke="black" stroke-width="1"/>
    <line x1="99.03" y1="93.11" x2="107.18" y2="97.82" stroke="black" stroke-width="1"/>
    <line x1="107.18" y1="97.82" x2="99.03" y2="93.11" stroke="black" stroke-width="1"/>
    <line x1="99.03" y1="93.11" x2="92.30" y2="81.47" stroke="black" stroke-width="1"/>
    <line x1="92.30" y1="81.47" x2="105.75" y2="81.47" stroke="black" stroke-width="1"/>
    <line x1="105.75" y1="81.47" x2="113.90" y2="86.17" stroke="black" stroke-width="1"/>
    <line x1="113.90" y1="86.17" x2="105.75" y2="81.47" stroke="black" stroke-width="1"/>
    <line x1="105.75" y1="81.47" x2="113.90" y2="76.76" stroke="black" stroke-width="1"/>
    <line x1="113.90" y1="76.76" x2="105.75" y2="81.47" stroke="black" stroke-width="1"/>
    <line x1="105.75" y1="81.47" x2="92.30" y2="81.47" stroke="black" stroke-width="1"/>
    <line x1="92.30" y1="81.47" x2="75.67" y2="71.86" stroke="black" stroke-width="1"/>
    <line x1="75.67" y1="71.86" x2="61.95" y2="48.10" stroke="black" stroke-width="1"/>
    <line x1="61.95" y1="48.10" x2="89.39" y2="48.10" stroke="black" stroke-width="1"/>
    <line x1="89.39" y1="48.10" x2="106.02" y2="57.70" stroke="black" stroke-width="1"/>
    <line x1="106.02" y1="57.70" x2="112.75" y2="69.35" stroke="black" stroke-width="1"/>
    <line x1="112.75" y1="69.35" x2="112.75" y2="78.76" stroke="black" stroke-width="1"/>
    <line x1="112.75" y1="78.76" x2="112.75" y2="69.35" stroke="black" stroke-width="1"/>
    <line x1="112.75" y1="69.35" x2="120.90" y2="74.05" stroke="black" stroke-width="1"/>
    <line x1="120.90" y1="74.05" x2="112.75" y2="69.35" stroke="black" stroke-width="1"/>
    <line x1="112.75" y1="69.35" x2="106.02" y2="57.70" stroke="black" stroke-width="1"/>
    <line x1="106.02" y1="57.70" x2="119.47" y2="57.70" stroke="black" stroke-width="1"/>
    <line x1="119.47" y1="57.70" x2="127.62" y2="62.41" stroke="black" stroke-width="1"/>
    <line x1="127.62" y1="62.41" x2="119.47" y2="57.70" stroke="black" stroke-width="1"/>
    <line x1="119.47" y1="57.70" x2="127.62" y2="53.00" stroke="black" stroke-width="1"/>
    <line x1="127.62" y1="53.00" x2="119.47" y2="57.70" stroke="black" stroke-width="1"/>
    <line x1="119.47" y1="57.70" x2="106.02" y2="57.70" stroke="black" stroke-width="1"/>
    <line x1="106.02" y1="57.70" x2="89.39" y2="48.10" stroke="black" stroke-width="1"/>
    <line x1="89.39" y1="48.10" x2="106.02" y2="38.49" stroke="black" stroke-width="1"/>
    <line x1="106.02" y1="38.49" x2="119.47" y2="38.49" stroke="black" stroke-width="1"/>
    <line x1="119.47" y1="38.49" x2="127.62" y2="43.20" stroke="black" stroke-width="1"/>
    <line x1="127.62" y1="43.20" x2="119.47" y2="38.49" stroke="black" stroke-width="1"/>
    <line x1="119.47" y1="38.49" x2="127.62" y2="33.79" stroke="black" stroke-width="1"/>
    <line x1="127.62" y1="33.79" x2="119.47" y2="38.49" stroke="black" stroke-width="1"/>
    <line x1="119.47" y1="38.49" x2="106.02" y2="38.49" stroke="black" stroke-width="1"/>
    <line x1="106.02" y1="38.49" x2="112.75" y2="26.85" stroke="black" stroke-width="1"/>
    <line x1="112.75" y1="26.85" x2="120.90" y2="22.14" stroke="black" stroke-width="1"/>
    <line x1="120.90" y1="22.14" x2="112.75" y2="26.85" stroke="black" stroke-width="1"/>
    <line x1="112.75" y1="26.85" x2="112.75" y2="17.44" stroke="black" stroke-width="1"/>
    <line x1="112.75" y1="17.44" x2="112.75" y2="26.85" stroke="black" stroke-width="1"/>
    <line x1="112.75" y1="26.85" x2="106.02" y2="38.49" stroke="black" stroke-width="1"/>
    <line x1="106.02" y1="38.49" x2="89.39" y2="48.10" stroke="black" stroke-width="1"/>
    <line x1="89.39" y1="48.10" x2="61.95" y2="48.10" stroke="black" stroke-width="1"/>
    <line x1="61.95" y1="48.10" x2="28.00" y2="28.50" stroke="black" stroke-width="1"/>
    <line x1="28.00" y1="28.50" x2="0.00" y2="-20.00" stroke="black" stroke-width="1"/>
    <line x1="0.00" y1="-20.00" x2="0.00" y2="-100.00" stroke="black" stroke-width="1"/>
  </g>
</svg>