<?xml version="1.0" encoding="UTF-8"?>
<svg xmlns="http://www.w3.org/2000/svg" 
     width="500" height="400" 
     viewBox="0 0 500 400">
  <rect width="100%" height="100%" fill="white"/>
  <g transform="translate(250, 200) scale(1, -1)">
    <line x1="0.00" y1="0.00" x2="0.00" y2="80.00" stroke="black" stroke-width="1"/>
    <line x1="0.00" y1="80.00" x2="69.28" y2="40.00" stroke="black" stroke-width="1"/>
    <line x1="69.28" y1="40.00" x2="0.00" y2="0.00" stroke="black" stroke-width="1"/>
    <line x1="0.00" y1="150.00" x2="0.00" y2="210.00" stroke="black" stroke-width="1"/>
    <line x1="0.00" y1="210.00" x2="57.06" y2="228.54" stroke="black" stroke-width="1"/>
    <line x1="57.06" y1="228.54" x2="92.33" y2="180.00" stroke="black" stroke-width="1"/>
    <line x1="92.33" y1="180.00" x2="57.06" y2="131.46" stroke="black" stroke-width="1"/>
    <line x1="57.06" y1="131.46" x2="0.00" y2="150.00" stroke="black" stroke-width="1"/>
    <line x1="150.00" y1="150.00" x2="150.00" y2="190.00" stroke="black" stroke-width="1"/>
    <line x1="150.00" y1="190.00" x2="178.28" y2="218.28" stroke="black" stroke-width="1"/>
    <line x1="178.28" y1="218.28" x2="218.28" y2="218.28" stroke="black" stroke-width="1"/>
    <line x1="218.28" y1="218.28" x2="246.57" y2="190.00" stroke="black" stroke-width="1"/>
    <line x1="246.57" y1="190.00" x2="246.57" y2="150.00" stroke="black" stroke-width="1"/>
    <line x1="246.57" y1="150.00" x2="218.28" y2="121.72" stroke="black" stroke-width="1"/>
    <line x1="218.28" y1="121.72" x2="178.28" y2="121.72" stroke="black" stroke-width="1"/>
    <line x1="178.28" y1="121.72" x2="150.00" y2="150.00" stroke="black" stroke-width="1"/>
  </g>
</svg>