<?xml version="1.0" encoding="UTF-8"?>
<svg xmlns="http://www.w3.org/2000/svg" 
     width="600" height="600" 
     viewBox="0 0 600 600">
  <rect width="100%" height="100%" fill="white"/>
  <g transform="translate(300, 300) scale(1, -1)">
    <line x1="0.00" y1="0.00" x2="0.00" y2="2.00" stroke="black" stroke-width="1"/>
    <line x1="0.00" y1="2.00" x2="4.00" y2="1.93" stroke="black" stroke-width="1"/>
    <line x1="4.00" y1="1.93" x2="3.79" y2="-4.07" stroke="black" stroke-width="1"/>
    <line x1="3.79" y1="-4.07" x2="-4.20" y2="-3.65" stroke="black" stroke-width="1"/>
    <line x1="-4.20" y1="-3.65" x2="-3.50" y2="6.33" stroke="black" stroke-width="1"/>
    <line x1="-3.50" y1="6.33" x2="8.45" y2="5.28" stroke="black" stroke-width="1"/>
    <line x1="8.45" y1="5.28" x2="6.99" y2="-8.64" stroke="black" stroke-width="1"/>
    <line x1="6.99" y1="-8.64" x2="-8.89" y2="-6.69" stroke="black" stroke-width="1"/>
    <line x1="-8.89" y1="-6.69" x2="-6.39" y2="11.13" stroke="black" stroke-width="1"/>
    <line x1="-6.39" y1="11.13" x2="13.37" y2="8.01" stroke="black" stroke-width="1"/>
    <line x1="13.37" y1="8.01" x2="9.55" y2="-13.66" stroke="black" stroke-width="1"/>
    <line x1="9.55" y1="-13.66" x2="-14.01" y2="-9.08" stroke="black" stroke-width="1"/>
    <line x1="-14.01" y1="-9.08" x2="-8.61" y2="16.35" stroke="black" stroke-width="1"/>
    <line x1="-8.61" y1="16.35" x2="18.68" y2="10.05" stroke="black" stroke-width="1"/>
    <line x1="18.68" y1="10.05" x2="11.42" y2="-19.06" stroke="black" stroke-width="1"/>
    <line x1="11.42" y1="-19.06" x2="-19.49" y2="-10.77" stroke="black" stroke-width="1"/>
    <line x1="-19.49" y1="-10.77" x2="-10.12" y2="21.91" stroke="black" stroke-width="1"/>
    <line x1="-10.12" y1="21.91" x2="24.31" y2="11.38" stroke="black" stroke-width="1"/>
    <line x1="24.31" y1="11.38" x2="12.57" y2="-24.76" stroke="black" stroke-width="1"/>
    <line x1="12.57" y1="-24.76" x2="-25.26" y2="-11.73" stroke="black" stroke-width="1"/>
    <line x1="-25.26" y1="-11.73" x2="-10.89" y2="27.73" stroke="black" stroke-width="1"/>
    <line x1="-10.89" y1="27.73" x2="30.19" y2="11.96" stroke="black" stroke-width="1"/>
    <line x1="30.19" y1="11.96" x2="12.95" y2="-30.69" stroke="black" stroke-width="1"/>
    <line x1="12.95" y1="-30.69" x2="-31.23" y2="-11.93" stroke="black" stroke-width="1"/>
    <line x1="-31.23" y1="-11.93" x2="-10.89" y2="33.75" stroke="black" stroke-width="1"/>
    <line x1="-10.89" y1="33.75" x2="36.24" y2="11.77" stroke="black" stroke-width="1"/>
    <line x1="36.24" y1="11.77" x2="12.56" y2="-36.76" stroke="black" stroke-width="1"/>
    <line x1="12.56" y1="-36.76" x2="-37.33" y2="-11.34" stroke="black" stroke-width="1"/>
    <line x1="-37.33" y1="-11.34" x2="-10.10" y2="39.87" stroke="black" stroke-width="1"/>
    <line x1="-10.10" y1="39.87" x2="42.37" y2="10.78" stroke="black" stroke-width="1"/>
    <line x1="42.37" y1="10.78" x2="11.37" y2="-42.91" stroke="black" stroke-width="1"/>
    <line x1="11.37" y1="-42.91" x2="-43.49" y2="-9.95" stroke="black" stroke-width="1"/>
    <line x1="-43.49" y1="-9.95" x2="-8.51" y2="46.02" stroke="black" stroke-width="1"/>
    <line x1="-8.51" y1="46.02" x2="48.52" y2="8.99" stroke="black" stroke-width="1"/>
    <line x1="48.52" y1="8.99" x2="9.38" y2="-49.05" stroke="black" stroke-width="1"/>
    <line x1="9.38" y1="-49.05" x2="-49.60" y2="-7.75" stroke="black" stroke-width="1"/>
    <line x1="-49.60" y1="-7.75" x2="-6.11" y2="52.12" stroke="black" stroke-width="1"/>
    <line x1="-6.11" y1="52.12" x2="54.59" y2="6.38" stroke="black" stroke-width="1"/>
    <line x1="54.59" y1="6.38" x2="6.57" y2="-55.09" stroke="black" stroke-width="1"/>
    <line x1="6.57" y1="-55.09" x2="-55.60" y2="-4.74" stroke="black" stroke-width="1"/>
    <line x1="-55.60" y1="-4.74" x2="-2.90" y2="58.08" stroke="black" stroke-width="1"/>
    <line x1="-2.90" y1="58.08" x2="60.50" y2="2.97" stroke="black" stroke-width="1"/>
    <line x1="60.50" y1="2.97" x2="2.95" y2="-60.94" stroke="black" stroke-width="1"/>
    <line x1="2.95" y1="-60.94" x2="-61.40" y2="-0.93" stroke="black" stroke-width="1"/>
    <line x1="-61.40" y1="-0.93" x2="1.11" y2="63.81" stroke="black" stroke-width="1"/>
    <line x1="1.11" y1="63.81" x2="66.17" y2="-1.24" stroke="black" stroke-width="1"/>
    <line x1="66.17" y1="-1.24" x2="-1.45" y2="-66.54" stroke="black" stroke-width="1"/>
    <line x1="-1.45" y1="-66.54" x2="-66.92" y2="3.67" stroke="black" stroke-width="1"/>
    <line x1="-66.92" y1="3.67" x2="5.91" y2="69.25" stroke="black" stroke-width="1"/>
    <line x1="5.91" y1="69.25" x2="71.51" y2="-6.22" stroke="black" stroke-width="1"/>
    <line x1="71.51" y1="-6.22" x2="-6.62" y2="-71.79" stroke="black" stroke-width="1"/>
    <line x1="-6.62" y1="-71.79" x2="-72.07" y2="9.03" stroke="black" stroke-width="1"/>
    <line x1="-72.07" y1="9.03" x2="11.46" y2="74.29" stroke="black" stroke-width="1"/>
    <line x1="11.46" y1="74.29" x2="76.45" y2="-11.96" stroke="black" stroke-width="1"/>
    <line x1="76.45" y1="-11.96" x2="-12.54" y2="-76.61" stroke="black" stroke-width="1"/>
    <line x1="-12.54" y1="-76.61" x2="-76.78" y2="15.13" stroke="black" stroke-width="1"/>
    <line x1="-76.78" y1="15.13" x2="17.73" y2="78.88" stroke="black" stroke-width="1"/>
    <line x1="17.73" y1="78.88" x2="80.91" y2="-18.41" stroke="black" stroke-width="1"/>
    <line x1="80.91" y1="-18.41" x2="-19.16" y2="-80.94" stroke="black" stroke-width="1"/>
    <line x1="-19.16" y1="-80.94" x2="-80.97" y2="21.92" stroke="black" stroke-width="1"/>
    <line x1="-80.97" y1="21.92" x2="24.69" y2="82.92" stroke="black" stroke-width="1"/>
    <line x1="24.69" y1="82.92" x2="84.81" y2="-25.53" stroke="black" stroke-width="1"/>
    <line x1="84.81" y1="-25.53" x2="-26.45" y2="-84.68" stroke="black" stroke-width="1"/>
    <line x1="-26.45" y1="-84.68" x2="-84.56" y2="29.36" stroke="black" stroke-width="1"/>
    <line x1="-84.56" y1="29.36" x2="32.29" y2="86.35" stroke="black" stroke-width="1"/>
    <line x1="32.29" y1="86.35" x2="88.07" y2="-33.28" stroke="black" stroke-width="1"/>
    <line x1="88.07" y1="-33.28" x2="-34.34" y2="-87.78" stroke="black" stroke-width="1"/>
    <line x1="-34.34" y1="-87.78" x2="-87.48" y2="37.41" stroke="black" stroke-width="1"/>
    <line x1="-87.48" y1="37.41" x2="40.47" y2="89.10" stroke="black" stroke-width="1"/>
    <line x1="40.47" y1="89.10" x2="90.64" y2="-41.60" stroke="black" stroke-width="1"/>
    <line x1="90.64" y1="-41.60" x2="-42.80" y2="-90.17" stroke="black" stroke-width="1"/>
    <line x1="-42.80" y1="-90.17" x2="-89.68" y2="45.99" stroke="black" stroke-width="1"/>
    <line x1="-89.68" y1="45.99" x2="49.18" y2="91.10" stroke="black" stroke-width="1"/>
    <line x1="49.18" y1="91.10" x2="92.45" y2="-50.43" stroke="black" stroke-width="1"/>
    <line x1="92.45" y1="-50.43" x2="-51.74" y2="-91.77" stroke="black" stroke-width="1"/>
    <line x1="-51.74" y1="-91.77" x2="-91.08" y2="55.05" stroke="black" stroke-width="1"/>
    <line x1="-91.08" y1="55.05" x2="58.34" y2="92.30" stroke="black" stroke-width="1"/>
    <line x1="58.34" y1="92.30" x2="93.44" y2="-59.70" stroke="black" stroke-width="1"/>
    <line x1="93.44" y1="-59.70" x2="-61.11" y2="-92.55" stroke="black" stroke-width="1"/>
    <line x1="-61.11" y1="-92.55" x2="-91.64" y2="64.51" stroke="black" stroke-width="1"/>
    <line x1="-91.64" y1="64.51" x2="67.90" y2="92.64" stroke="black" stroke-width="1"/>
    <line x1="67.90" y1="92.64" x2="93.55" y2="-69.34" stroke="black" stroke-width="1"/>
    <line x1="93.55" y1="-69.34" x2="-70.83" y2="-92.44" stroke="black" stroke-width="1"/>
    <line x1="-70.83" y1="-92.44" x2="-91.31" y2="74.31" stroke="black" stroke-width="1"/>
    <line x1="-91.31" y1="74.31" x2="77.76" y2="92.08" stroke="black" stroke-width="1"/>
    <line x1="77.76" y1="92.08" x2="92.75" y2="-79.27" stroke="black" stroke-width="1"/>
    <line x1="92.75" y1="-79.27" x2="-80.82" y2="-91.41" stroke="black" stroke-width="1"/>
    <line x1="-80.82" y1="-91.41" x2="-90.03" y2="84.35" stroke="black" stroke-width="1"/>
    <line x1="-90.03" y1="84.35" x2="87.86" y2="90.56" stroke="black" stroke-width="1"/>
    <line x1="87.86" y1="90.56" x2="91.00" y2="-89.41" stroke="black" stroke-width="1"/>
    <line x1="91.00" y1="-89.41" x2="-91.00" y2="-89.41" stroke="black" stroke-width="1"/>
    <line x1="-91.00" y1="-89.41" x2="-87.79" y2="94.56" stroke="black" stroke-width="1"/>
    <line x1="-87.79" y1="94.56" x2="98.10" y2="88.07" stroke="black" stroke-width="1"/>
    <line x1="98.10" y1="88.07" x2="88.26" y2="-99.67" stroke="black" stroke-width="1"/>
    <line x1="88.26" y1="-99.67" x2="-101.28" y2="-86.42" stroke="black" stroke-width="1"/>
    <line x1="-101.28" y1="-86.42" x2="-84.54" y2="104.85" stroke="black" stroke-width="1"/>
    <line x1="-84.54" y1="104.85" x2="108.39" y2="84.57" stroke="black" stroke-width="1"/>
    <line x1="108.39" y1="84.57" x2="84.51" y2="-109.96" stroke="black" stroke-width="1"/>
    <line x1="84.51" y1="-109.96" x2="-111.57" y2="-82.41" stroke="black" stroke-width="1"/>
    <line x1="-111.57" y1="-82.41" x2="-80.28" y2="115.13" stroke="black" stroke-width="1"/>
  </g>
</svg>