<?xml version="1.0" encoding="UTF-8"?>
<svg xmlns="http://www.w3.org/2000/svg" 
     width="400" height="400" 
     viewBox="0 0 400 400">
  <rect width="100%" height="100%" fill="white"/>
  <g transform="translate(200, 200) scale(1, -1)">
    <line x1="0.00" y1="0.00" x2="0.00" y2="5.00" stroke="red" stroke-width="1"/>
    <line x1="0.00" y1="5.00" x2="0.52" y2="9.97" stroke="red" stroke-width="1"/>
    <line x1="0.52" y1="9.97" x2="1.56" y2="14.86" stroke="red" stroke-width="1"/>
    <line x1="1.56" y1="14.86" x2="3.11" y2="19.62" stroke="red" stroke-width="1"/>
    <line x1="3.11" y1="19.62" x2="5.14" y2="24.19" stroke="red" stroke-width="1"/>
    <line x1="5.14" y1="24.19" x2="7.64" y2="28.52" stroke="red" stroke-width="1"/>
    <line x1="7.64" y1="28.52" x2="10.58" y2="32.56" stroke="red" stroke-width="1"/>
    <line x1="10.58" y1="32.56" x2="13.93" y2="36.28" stroke="red" stroke-width="1"/>
    <line x1="13.93" y1="36.28" x2="17.64" y2="39.62" stroke="red" stroke-width="1"/>
    <line x1="17.64" y1="39.62" x2="21.69" y2="42.56" stroke="red" stroke-width="1"/>
    <line x1="21.69" y1="42.56" x2="26.02" y2="45.06" stroke="red" stroke-width="1"/>
    <line x1="26.02" y1="45.06" x2="30.58" y2="47.10" stroke="red" stroke-width="1"/>
    <line x1="30.58" y1="47.10" x2="35.34" y2="48.64" stroke="red" stroke-width="1"/>
    <line x1="35.34" y1="48.64" x2="40.23" y2="49.68" stroke="red" stroke-width="1"/>
    <line x1="40.23" y1="49.68" x2="45.20" y2="50.20" stroke="red" stroke-width="1"/>
    <line x1="45.20" y1="50.20" x2="50.20" y2="50.20" stroke="red" stroke-width="1"/>
    <line x1="50.20" y1="50.20" x2="55.18" y2="49.68" stroke="red" stroke-width="1"/>
    <line x1="55.18" y1="49.68" x2="60.07" y2="48.64" stroke="red" stroke-width="1"/>
    <line x1="60.07" y1="48.64" x2="64.82" y2="47.10" stroke="red" stroke-width="1"/>
    <line x1="64.82" y1="47.10" x2="69.39" y2="45.06" stroke="red" stroke-width="1"/>
    <line x1="69.39" y1="45.06" x2="73.72" y2="42.56" stroke="red" stroke-width="1"/>
    <line x1="73.72" y1="42.56" x2="77.76" y2="39.62" stroke="red" stroke-width="1"/>
    <line x1="77.76" y1="39.62" x2="81.48" y2="36.28" stroke="red" stroke-width="1"/>
    <line x1="81.48" y1="36.28" x2="84.83" y2="32.56" stroke="red" stroke-width="1"/>
    <line x1="84.83" y1="32.56" x2="87.76" y2="28.52" stroke="red" stroke-width="1"/>
    <line x1="87.76" y1="28.52" x2="90.26" y2="24.19" stroke="red" stroke-width="1"/>
    <line x1="90.26" y1="24.19" x2="92.30" y2="19.62" stroke="red" stroke-width="1"/>
    <line x1="92.30" y1="19.62" x2="93.84" y2="14.86" stroke="red" stroke-width="1"/>
    <line x1="93.84" y1="14.86" x2="94.88" y2="9.97" stroke="red" stroke-width="1"/>
    <line x1="94.88" y1="9.97" x2="95.41" y2="5.00" stroke="red" stroke-width="1"/>
    <line x1="95.41" y1="5.00" x2="95.41" y2="0.00" stroke="red" stroke-width="1"/>
    <line x1="95.41" y1="0.00" x2="94.88" y2="-4.97" stroke="red" stroke-width="1"/>
    <line x1="94.88" y1="-4.97" x2="93.84" y2="-9.86" stroke="red" stroke-width="1"/>
    <line x1="93.84" y1="-9.86" x2="92.30" y2="-14.62" stroke="red" stroke-width="1"/>
    <line x1="92.30" y1="-14.62" x2="90.26" y2="-19.19" stroke="red" stroke-width="1"/>
    <line x1="90.26" y1="-19.19" x2="87.76" y2="-23.52" stroke="red" stroke-width="1"/>
    <line x1="87.76" y1="-23.52" x2="84.83" y2="-27.56" stroke="red" stroke-width="1"/>
    <line x1="84.83" y1="-27.56" x2="81.48" y2="-31.28" stroke="red" stroke-width="1"/>
    <line x1="81.48" y1="-31.28" x2="77.76" y2="-34.62" stroke="red" stroke-width="1"/>
    <line x1="77.76" y1="-34.62" x2="73.72" y2="-37.56" stroke="red" stroke-width="1"/>
    <line x1="73.72" y1="-37.56" x2="69.39" y2="-40.06" stroke="red" stroke-width="1"/>
    <line x1="69.39" y1="-40.06" x2="64.82" y2="-42.10" stroke="red" stroke-width="1"/>
    <line x1="64.82" y1="-42.10" x2="60.07" y2="-43.64" stroke="red" stroke-width="1"/>
    <line x1="60.07" y1="-43.64" x2="55.18" y2="-44.68" stroke="red" stroke-width="1"/>
    <line x1="55.18" y1="-44.68" x2="50.20" y2="-45.20" stroke="red" stroke-width="1"/>
    <line x1="50.20" y1="-45.20" x2="45.20" y2="-45.20" stroke="red" stroke-width="1"/>
    <line x1="45.20" y1="-45.20" x2="40.23" y2="-44.68" stroke="red" stroke-width="1"/>
    <line x1="40.23" y1="-44.68" x2="35.34" y2="-43.64" stroke="red" stroke-width="1"/>
    <line x1="35.34" y1="-43.64" x2="30.58" y2="-42.10" stroke="red" stroke-width="1"/>
    <line x1="30.58" y1="-42.10" x2="26.02" y2="-40.06" stroke="red" stroke-width="1"/>
    <line x1="26.02" y1="-40.06" x2="21.69" y2="-37.56" stroke="red" stroke-width="1"/>
    <line x1="21.69" y1="-37.56" x2="17.64" y2="-34.62" stroke="red" stroke-width="1"/>
    <line x1="17.64" y1="-34.62" x2="13.93" y2="-31.28" stroke="red" stroke-width="1"/>
    <line x1="13.93" y1="-31.28" x2="10.58" y2="-27.56" stroke="red" stroke-width="1"/>
    <line x1="10.58" y1="-27.56" x2="7.64" y2="-23.52" stroke="red" stroke-width="1"/>
    <line x1="7.64" y1="-23.52" x2="5.14" y2="-19.19" stroke="red" stroke-width="1"/>
    <line x1="5.14" y1="-19.19" x2="3.11" y2="-14.62" stroke="red" stroke-width="1"/>
    <line x1="3.11" y1="-14.62" x2="1.56" y2="-9.86" stroke="red" stroke-width="1"/>
    <line x1="1.56" y1="-9.86" x2="0.52" y2="-4.97" stroke="red" stroke-width="1"/>
    <line x1="0.52" y1="-4.97" x2="0.00" y2="0.00" stroke="red" stroke-width="1"/>
    <line x1="0.00" y1="0.00" x2="0.00" y2="5.00" stroke="orange" stroke-width="1"/>
    <line x1="0.00" y1="5.00" x2="0.52" y2="9.97" stroke="orange" stroke-width="1"/>
    <line x1="0.52" y1="9.97" x2="1.56" y2="14.86" stroke="orange" stroke-width="1"/>
    <line x1="1.56" y1="14.86" x2="3.11" y2="19.62" stroke="orange" stroke-width="1"/>
    <line x1="3.11" y1="19.62" x2="5.14" y2="24.19" stroke="orange" stroke-width="1"/>
    <line x1="5.14" y1="24.19" x2="7.64" y2="28.52" stroke="orange" stroke-width="1"/>
    <line x1="7.64" y1="28.52" x2="10.58" y2="32.56" stroke="orange" stroke-width="1"/>
    <line x1="10.58" y1="32.56" x2="13.93" y2="36.28" stroke="orange" stroke-width="1"/>
    <line x1="13.93" y1="36.28" x2="17.64" y2="39.62" stroke="orange" stroke-width="1"/>
    <line x1="17.64" y1="39.62" x2="21.69" y2="42.56" stroke="orange" stroke-width="1"/>
    <line x1="21.69" y1="42.56" x2="26.02" y2="45.06" stroke="orange" stroke-width="1"/>
    <line x1="26.02" y1="45.06" x2="30.58" y2="47.10" stroke="orange" stroke-width="1"/>
    <line x1="30.58" y1="47.10" x2="35.34" y2="48.64" stroke="orange" stroke-width="1"/>
    <line x1="35.34" y1="48.64" x2="40.23" y2="49.68" stroke="orange" stroke-width="1"/>
    <line x1="40.23" y1="49.68" x2="45.20" y2="50.20" stroke="orange" stroke-width="1"/>
    <line x1="45.20" y1="50.20" x2="50.20" y2="50.20" stroke="orange" stroke-width="1"/>
    <line x1="50.20" y1="50.20" x2="55.18" y2="49.68" stroke="orange" stroke-width="1"/>
    <line x1="55.18" y1="49.68" x2="60.07" y2="48.64" stroke="orange" stroke-width="1"/>
    <line x1="60.07" y1="48.64" x2="64.82" y2="47.10" stroke="orange" stroke-width="1"/>
    <line x1="64.82" y1="47.10" x2="69.39" y2="45.06" stroke="orange" stroke-width="1"/>
    <line x1="69.39" y1="45.06" x2="73.72" y2="42.56" stroke="orange" stroke-width="1"/>
    <line x1="73.72" y1="42.56" x2="77.76" y2="39.62" stroke="orange" stroke-width="1"/>
    <line x1="77.76" y1="39.62" x2="81.48" y2="36.28" stroke="orange" stroke-width="1"/>
    <line x1="81.48" y1="36.28" x2="84.83" y2="32.56" stroke="orange" stroke-width="1"/>
    <line x1="84.83" y1="32.56" x2="87.76" y2="28.52" stroke="orange" stroke-width="1"/>
    <line x1="87.76" y1="28.52" x2="90.26" y2="24.19" stroke="orange" stroke-width="1"/>
    <line x1="90.26" y1="24.19" x2="92.30" y2="19.62" stroke="orange" stroke-width="1"/>
    <line x1="92.30" y1="19.62" x2="93.84" y2="14.86" stroke="orange" stroke-width="1"/>
    <line x1="93.84" y1="14.86" x2="94.88" y2="9.97" stroke="orange" stroke-width="1"/>
    <line x1="94.88" y1="9.97" x2="95.41" y2="5.00" stroke="orange" stroke-width="1"/>
    <line x1="95.41" y1="5.00" x2="95.41" y2="0.00" stroke="orange" stroke-width="1"/>
    <line x1="95.41" y1="0.00" x2="94.88" y2="-4.97" stroke="orange" stroke-width="1"/>
    <line x1="94.88" y1="-4.97" x2="93.84" y2="-9.86" stroke="orange" stroke-width="1"/>
    <line x1="93.84" y1="-9.86" x2="92.30" y2="-14.62" stroke="orange" stroke-width="1"/>
    <line x1="92.30" y1="-14.62" x2="90.26" y2="-19.19" stroke="orange" stroke-width="1"/>
    <line x1="90.26" y1="-19.19" x2="87.76" y2="-23.52" stroke="orange" stroke-width="1"/>
    <line x1="87.76" y1="-23.52" x2="84.83" y2="-27.56" stroke="orange" stroke-width="1"/>
    <line x1="84.83" y1="-27.56" x2="81.48" y2="-31.28" stroke="orange" stroke-width="1"/>
    <line x1="81.48" y1="-31.28" x2="77.76" y2="-34.62" stroke="orange" stroke-width="1"/>
    <line x1="77.76" y1="-34.62" x2="73.72" y2="-37.56" stroke="orange" stroke-width="1"/>
    <line x1="73.72" y1="-37.56" x2="69.39" y2="-40.06" stroke="orange" stroke-width="1"/>
    <line x1="69.39" y1="-40.06" x2="64.82" y2="-42.10" stroke="orange" stroke-width="1"/>
    <line x1="64.82" y1="-42.10" x2="60.07" y2="-43.64" stroke="orange" stroke-width="1"/>
    <line x1="60.07" y1="-43.64" x2="55.18" y2="-44.68" stroke="orange" stroke-width="1"/>
    <line x1="55.18" y1="-44.68" x2="50.20" y2="-45.20" stroke="orange" stroke-width="1"/>
    <line x1="50.20" y1="-45.20" x2="45.20" y2="-45.20" stroke="orange" stroke-width="1"/>
    <line x1="45.20" y1="-45.20" x2="40.23" y2="-44.68" stroke="orange" stroke-width="1"/>
    <line x1="40.23" y1="-44.68" x2="35.34" y2="-43.64" stroke="orange" stroke-width="1"/>
    <line x1="35.34" y1="-43.64" x2="30.58" y2="-42.10" stroke="orange" stroke-width="1"/>
    <line x1="30.58" y1="-42.10" x2="26.02" y2="-40.06" stroke="orange" stroke-width="1"/>
    <line x1="26.02" y1="-40.06" x2="21.69" y2="-37.56" stroke="orange" stroke-width="1"/>
    <line x1="21.69" y1="-37.56" x2="17.64" y2="-34.62" stroke="orange" stroke-width="1"/>
    <line x1="17.64" y1="-34.62" x2="13.93" y2="-31.28" stroke="orange" stroke-width="1"/>
    <line x1="13.93" y1="-31.28" x2="10.58" y2="-27.56" stroke="orange" stroke-width="1"/>
    <line x1="10.58" y1="-27.56" x2="7.64" y2="-23.52" stroke="orange" stroke-width="1"/>
    <line x1="7.64" y1="-23.52" x2="5.14" y2="-19.19" stroke="orange" stroke-width="1"/>
    <line x1="5.14" y1="-19.19" x2="3.11" y2="-14.62" stroke="orange" stroke-width="1"/>
    <line x1="3.11" y1="-14.62" x2="1.56" y2="-9.86" stroke="orange" stroke-width="1"/>
    <line x1="1.56" y1="-9.86" x2="0.52" y2="-4.97" stroke="orange" stroke-width="1"/>
    <line x1="0.52" y1="-4.97" x2="0.00" y2="0.00" stroke="orange" stroke-width="1"/>
    <line x1="0.00" y1="0.00" x2="0.00" y2="5.00" stroke="yellow" stroke-width="1"/>
    <line x1="0.00" y1="5.00" x2="0.52" y2="9.97" stroke="yellow" stroke-width="1"/>
    <line x1="0.52" y1="9.97" x2="1.56" y2="14.86" stroke="yellow" stroke-width="1"/>
    <line x1="1.56" y1="14.86" x2="3.11" y2="19.62" stroke="yellow" stroke-width="1"/>
    <line x1="3.11" y1="19.62" x2="5.14" y2="24.19" stroke="yellow" stroke-width="1"/>
    <line x1="5.14" y1="24.19" x2="7.64" y2="28.52" stroke="yellow" stroke-width="1"/>
    <line x1="7.64" y1="28.52" x2="10.58" y2="32.56" stroke="yellow" stroke-width="1"/>
    <line x1="10.58" y1="32.56" x2="13.93" y2="36.28" stroke="yellow" stroke-width="1"/>
    <line x1="13.93" y1="36.28" x2="17.64" y2="39.62" stroke="yellow" stroke-width="1"/>
    <line x1="17.64" y1="39.62" x2="21.69" y2="42.56" stroke="yellow" stroke-width="1"/>
    <line x1="21.69" y1="42.56" x2="26.02" y2="45.06" stroke="yellow" stroke-width="1"/>
    <line x1="26.02" y1="45.06" x2="30.58" y2="47.10" stroke="yellow" stroke-width="1"/>
    <line x1="30.58" y1="47.10" x2="35.34" y2="48.64" stroke="yellow" stroke-width="1"/>
    <line x1="35.34" y1="48.64" x2="40.23" y2="49.68" stroke="yellow" stroke-width="1"/>
    <line x1="40.23" y1="49.68" x2="45.20" y2="50.20" stroke="yellow" stroke-width="1"/>
    <line x1="45.20" y1="50.20" x2="50.20" y2="50.20" stroke="yellow" stroke-width="1"/>
    <line x1="50.20" y1="50.20" x2="55.18" y2="49.68" stroke="yellow" stroke-width="1"/>
    <line x1="55.18" y1="49.68" x2="60.07" y2="48.64" stroke="yellow" stroke-width="1"/>
    <line x1="60.07" y1="48.64" x2="64.82" y2="47.10" stroke="yellow" stroke-width="1"/>
    <line x1="64.82" y1="47.10" x2="69.39" y2="45.06" stroke="yellow" stroke-width="1"/>
    <line x1="69.39" y1="45.06" x2="73.72" y2="42.56" stroke="yellow" stroke-width="1"/>
    <line x1="73.72" y1="42.56" x2="77.76" y2="39.62" stroke="yellow" stroke-width="1"/>
    <line x1="77.76" y1="39.62" x2="81.48" y2="36.28" stroke="yellow" stroke-width="1"/>
    <line x1="81.48" y1="36.28" x2="84.83" y2="32.56" stroke="yellow" stroke-width="1"/>
    <line x1="84.83" y1="32.56" x2="87.76" y2="28.52" stroke="yellow" stroke-width="1"/>
    <line x1="87.76" y1="28.52" x2="90.26" y2="24.19" stroke="yellow" stroke-width="1"/>
    <line x1="90.26" y1="24.19" x2="92.30" y2="19.62" stroke="yellow" stroke-width="1"/>
    <line x1="92.30" y1="19.62" x2="93.84" y2="14.86" stroke="yellow" stroke-width="1"/>
    <line x1="93.84" y1="14.86" x2="94.88" y2="9.97" stroke="yellow" stroke-width="1"/>
    <line x1="94.88" y1="9.97" x2="95.41" y2="5.00" stroke="yellow" stroke-width="1"/>
    <line x1="95.41" y1="5.00" x2="95.41" y2="0.00" stroke="yellow" stroke-width="1"/>
    <line x1="95.41" y1="0.00" x2="94.88" y2="-4.97" stroke="yellow" stroke-width="1"/>
    <line x1="94.88" y1="-4.97" x2="93.84" y2="-9.86" stroke="yellow" stroke-width="1"/>
    <line x1="93.84" y1="-9.86" x2="92.30" y2="-14.62" stroke="yellow" stroke-width="1"/>
    <line x1="92.30" y1="-14.62" x2="90.26" y2="-19.19" stroke="yellow" stroke-width="1"/>
    <line x1="90.26" y1="-19.19" x2="87.76" y2="-23.52" stroke="yellow" stroke-width="1"/>
    <line x1="87.76" y1="-23.52" x2="84.83" y2="-27.56" stroke="yellow" stroke-width="1"/>
    <line x1="84.83" y1="-27.56" x2="81.48" y2="-31.28" stroke="yellow" stroke-width="1"/>
    <line x1="81.48" y1="-31.28" x2="77.76" y2="-34.62" stroke="yellow" stroke-width="1"/>
    <line x1="77.76" y1="-34.62" x2="73.72" y2="-37.56" stroke="yellow" stroke-width="1"/>
    <line x1="73.72" y1="-37.56" x2="69.39" y2="-40.06" stroke="yellow" stroke-width="1"/>
    <line x1="69.39" y1="-40.06" x2="64.82" y2="-42.10" stroke="yellow" stroke-width="1"/>
    <line x1="64.82" y1="-42.10" x2="60.07" y2="-43.64" stroke="yellow" stroke-width="1"/>
    <line x1="60.07" y1="-43.64" x2="55.18" y2="-44.68" stroke="yellow" stroke-width="1"/>
    <line x1="55.18" y1="-44.68" x2="50.20" y2="-45.20" stroke="yellow" stroke-width="1"/>
    <line x1="50.20" y1="-45.20" x2="45.20" y2="-45.20" stroke="yellow" stroke-width="1"/>
    <line x1="45.20" y1="-45.20" x2="40.23" y2="-44.68" stroke="yellow" stroke-width="1"/>
    <line x1="40.23" y1="-44.68" x2="35.34" y2="-43.64" stroke="yellow" stroke-width="1"/>
    <line x1="35.34" y1="-43.64" x2="30.58" y2="-42.10" stroke="yellow" stroke-width="1"/>
    <line x1="30.58" y1="-42.10" x2="26.02" y2="-40.06" stroke="yellow" stroke-width="1"/>
    <line x1="26.02" y1="-40.06" x2="21.69" y2="-37.56" stroke="yellow" stroke-width="1"/>
    <line x1="21.69" y1="-37.56" x2="17.64" y2="-34.62" stroke="yellow" stroke-width="1"/>
    <line x1="17.64" y1="-34.62" x2="13.93" y2="-31.28" stroke="yellow" stroke-width="1"/>
    <line x1="13.93" y1="-31.28" x2="10.58" y2="-27.56" stroke="yellow" stroke-width="1"/>
    <line x1="10.58" y1="-27.56" x2="7.64" y2="-23.52" stroke="yellow" stroke-width="1"/>
    <line x1="7.64" y1="-23.52" x2="5.14" y2="-19.19" stroke="yellow" stroke-width="1"/>
    <line x1="5.14" y1="-19.19" x2="3.11" y2="-14.62" stroke="yellow" stroke-width="1"/>
    <line x1="3.11" y1="-14.62" x2="1.56" y2="-9.86" stroke="yellow" stroke-width="1"/>
    <line x1="1.56" y1="-9.86" x2="0.52" y2="-4.97" stroke="yellow" stroke-width="1"/>
    <line x1="0.52" y1="-4.97" x2="0.00" y2="0.00" stroke="yellow" stroke-width="1"/>
    <line x1="0.00" y1="0.00" x2="0.00" y2="5.00" stroke="green" stroke-width="1"/>
    <line x1="0.00" y1="5.00" x2="0.52" y2="9.97" stroke="green" stroke-width="1"/>
    <line x1="0.52" y1="9.97" x2="1.56" y2="14.86" stroke="green" stroke-width="1"/>
    <line x1="1.56" y1="14.86" x2="3.11" y2="19.62" stroke="green" stroke-width="1"/>
    <line x1="3.11" y1="19.62" x2="5.14" y2="24.19" stroke="green" stroke-width="1"/>
    <line x1="5.14" y1="24.19" x2="7.64" y2="28.52" stroke="green" stroke-width="1"/>
    <line x1="7.64" y1="28.52" x2="10.58" y2="32.56" stroke="green" stroke-width="1"/>
    <line x1="10.58" y1="32.56" x2="13.93" y2="36.28" stroke="green" stroke-width="1"/>
    <line x1="13.93" y1="36.28" x2="17.64" y2="39.62" stroke="green" stroke-width="1"/>
    <line x1="17.64" y1="39.62" x2="21.69" y2="42.56" stroke="green" stroke-width="1"/>
    <line x1="21.69" y1="42.56" x2="26.02" y2="45.06" stroke="green" stroke-width="1"/>
    <line x1="26.02" y1="45.06" x2="30.58" y2="47.10" stroke="green" stroke-width="1"/>
    <line x1="30.58" y1="47.10" x2="35.34" y2="48.64" stroke="green" stroke-width="1"/>
    <line x1="35.34" y1="48.64" x2="40.23" y2="49.68" stroke="green" stroke-width="1"/>
    <line x1="40.23" y1="49.68" x2="45.20" y2="50.20" stroke="green" stroke-width="1"/>
    <line x1="45.20" y1="50.20" x2="50.20" y2="50.20" stroke="green" stroke-width="1"/>
    <line x1="50.20" y1="50.20" x2="55.18" y2="49.68" stroke="green" stroke-width="1"/>
    <line x1="55.18" y1="49.68" x2="60.07" y2="48.64" stroke="green" stroke-width="1"/>
    <line x1="60.07" y1="48.64" x2="64.82" y2="47.10" stroke="green" stroke-width="1"/>
    <line x1="64.82" y1="47.10" x2="69.39" y2="45.06" stroke="green" stroke-width="1"/>
    <line x1="69.39" y1="45.06" x2="73.72" y2="42.56" stroke="green" stroke-width="1"/>
    <line x1="73.72" y1="42.56" x2="77.76" y2="39.62" stroke="green" stroke-width="1"/>
    <line x1="77.76" y1="39.62" x2="81.48" y2="36.28" stroke="green" stroke-width="1"/>
    <line x1="81.48" y1="36.28" x2="84.83" y2="32.56" stroke="green" stroke-width="1"/>
    <line x1="84.83" y1="32.56" x2="87.76" y2="28.52" stroke="green" stroke-width="1"/>
    <line x1="87.76" y1="28.52" x2="90.26" y2="24.19" stroke="green" stroke-width="1"/>
    <line x1="90.26" y1="24.19" x2="92.30" y2="19.62" stroke="green" stroke-width="1"/>
    <line x1="92.30" y1="19.62" x2="93.84" y2="14.86" stroke="green" stroke-width="1"/>
    <line x1="93.84" y1="14.86" x2="94.88" y2="9.97" stroke="green" stroke-width="1"/>
    <line x1="94.88" y1="9.97" x2="95.41" y2="5.00" stroke="green" stroke-width="1"/>
    <line x1="95.41" y1="5.00" x2="95.41" y2="0.00" stroke="green" stroke-width="1"/>
    <line x1="95.41" y1="0.00" x2="94.88" y2="-4.97" stroke="green" stroke-width="1"/>
    <line x1="94.88" y1="-4.97" x2="93.84" y2="-9.86" stroke="green" stroke-width="1"/>
    <line x1="93.84" y1="-9.86" x2="92.30" y2="-14.62" stroke="green" stroke-width="1"/>
    <line x1="92.30" y1="-14.62" x2="90.26" y2="-19.19" stroke="green" stroke-width="1"/>
    <line x1="90.26" y1="-19.19" x2="87.76" y2="-23.52" stroke="green" stroke-width="1"/>
    <line x1="87.76" y1="-23.52" x2="84.83" y2="-27.56" stroke="green" stroke-width="1"/>
    <line x1="84.83" y1="-27.56" x2="81.48" y2="-31.28" stroke="green" stroke-width="1"/>
    <line x1="81.48" y1="-31.28" x2="77.76" y2="-34.62" stroke="green" stroke-width="1"/>
    <line x1="77.76" y1="-34.62" x2="73.72" y2="-37.56" stroke="green" stroke-width="1"/>
    <line x1="73.72" y1="-37.56" x2="69.39" y2="-40.06" stroke="green" stroke-width="1"/>
    <line x1="69.39" y1="-40.06" x2="64.82" y2="-42.10" stroke="green" stroke-width="1"/>
    <line x1="64.82" y1="-42.10" x2="60.07" y2="-43.64" stroke="green" stroke-width="1"/>
    <line x1="60.07" y1="-43.64" x2="55.18" y2="-44.68" stroke="green" stroke-width="1"/>
    <line x1="55.18" y1="-44.68" x2="50.20" y2="-45.20" stroke="green" stroke-width="1"/>
    <line x1="50.20" y1="-45.20" x2="45.20" y2="-45.20" stroke="green" stroke-width="1"/>
    <line x1="45.20" y1="-45.20" x2="40.23" y2="-44.68" stroke="green" stroke-width="1"/>
    <line x1="40.23" y1="-44.68" x2="35.34" y2="-43.64" stroke="green" stroke-width="1"/>
    <line x1="35.34" y1="-43.64" x2="30.58" y2="-42.10" stroke="green" stroke-width="1"/>
    <line x1="30.58" y1="-42.10" x2="26.02" y2="-40.06" stroke="green" stroke-width="1"/>
    <line x1="26.02" y1="-40.06" x2="21.69" y2="-37.56" stroke="green" stroke-width="1"/>
    <line x1="21.69" y1="-37.56" x2="17.64" y2="-34.62" stroke="green" stroke-width="1"/>
    <line x1="17.64" y1="-34.62" x2="13.93" y2="-31.28" stroke="green" stroke-width="1"/>
    <line x1="13.93" y1="-31.28" x2="10.58" y2="-27.56" stroke="green" stroke-width="1"/>
    <line x1="10.58" y1="-27.56" x2="7.64" y2="-23.52" stroke="green" stroke-width="1"/>
    <line x1="7.64" y1="-23.52" x2="5.14" y2="-19.19" stroke="green" stroke-width="1"/>
    <line x1="5.14" y1="-19.19" x2="3.11" y2="-14.62" stroke="green" stroke-width="1"/>
    <line x1="3.11" y1="-14.62" x2="1.56" y2="-9.86" stroke="green" stroke-width="1"/>
    <line x1="1.56" y1="-9.86" x2="0.52" y2="-4.97" stroke="green" stroke-width="1"/>
    <line x1="0.52" y1="-4.97" x2="0.00" y2="0.00" stroke="green" stroke-width="1"/>
    <line x1="0.00" y1="0.00" x2="0.00" y2="5.00" stroke="blue" stroke-width="1"/>
    <line x1="0.00" y1="5.00" x2="0.52" y2="9.97" stroke="blue" stroke-width="1"/>
    <line x1="0.52" y1="9.97" x2="1.56" y2="14.86" stroke="blue" stroke-width="1"/>
    <line x1="1.56" y1="14.86" x2="3.11" y2="19.62" stroke="blue" stroke-width="1"/>
    <line x1="3.11" y1="19.62" x2="5.14" y2="24.19" stroke="blue" stroke-width="1"/>
    <line x1="5.14" y1="24.19" x2="7.64" y2="28.52" stroke="blue" stroke-width="1"/>
    <line x1="7.64" y1="28.52" x2="10.58" y2="32.56" stroke="blue" stroke-width="1"/>
    <line x1="10.58" y1="32.56" x2="13.93" y2="36.28" stroke="blue" stroke-width="1"/>
    <line x1="13.93" y1="36.28" x2="17.64" y2="39.62" stroke="blue" stroke-width="1"/>
    <line x1="17.64" y1="39.62" x2="21.69" y2="42.56" stroke="blue" stroke-width="1"/>
    <line x1="21.69" y1="42.56" x2="26.02" y2="45.06" stroke="blue" stroke-width="1"/>
    <line x1="26.02" y1="45.06" x2="30.58" y2="47.10" stroke="blue" stroke-width="1"/>
    <line x1="30.58" y1="47.10" x2="35.34" y2="48.64" stroke="blue" stroke-width="1"/>
    <line x1="35.34" y1="48.64" x2="40.23" y2="49.68" stroke="blue" stroke-width="1"/>
    <line x1="40.23" y1="49.68" x2="45.20" y2="50.20" stroke="blue" stroke-width="1"/>
    <line x1="45.20" y1="50.20" x2="50.20" y2="50.20" stroke="blue" stroke-width="1"/>
    <line x1="50.20" y1="50.20" x2="55.18" y2="49.68" stroke="blue" stroke-width="1"/>
    <line x1="55.18" y1="49.68" x2="60.07" y2="48.64" stroke="blue" stroke-width="1"/>
    <line x1="60.07" y1="48.64" x2="64.82" y2="47.10" stroke="blue" stroke-width="1"/>
    <line x1="64.82" y1="47.10" x2="69.39" y2="45.06" stroke="blue" stroke-width="1"/>
    <line x1="69.39" y1="45.06" x2="73.72" y2="42.56" stroke="blue" stroke-width="1"/>
    <line x1="73.72" y1="42.56" x2="77.76" y2="39.62" stroke="blue" stroke-width="1"/>
    <line x1="77.76" y1="39.62" x2="81.48" y2="36.28" stroke="blue" stroke-width="1"/>
    <line x1="81.48" y1="36.28" x2="84.83" y2="32.56" stroke="blue" stroke-width="1"/>
    <line x1="84.83" y1="32.56" x2="87.76" y2="28.52" stroke="blue" stroke-width="1"/>
    <line x1="87.76" y1="28.52" x2="90.26" y2="24.19" stroke="blue" stroke-width="1"/>
    <line x1="90.26" y1="24.19" x2="92.30" y2="19.62" stroke="blue" stroke-width="1"/>
    <line x1="92.30" y1="19.62" x2="93.84" y2="14.86" stroke="blue" stroke-width="1"/>
    <line x1="93.84" y1="14.86" x2="94.88" y2="9.97" stroke="blue" stroke-width="1"/>
    <line x1="94.88" y1="9.97" x2="95.41" y2="5.00" stroke="blue" stroke-width="1"/>
    <line x1="95.41" y1="5.00" x2="95.41" y2="0.00" stroke="blue" stroke-width="1"/>
    <line x1="95.41" y1="0.00" x2="94.88" y2="-4.97" stroke="blue" stroke-width="1"/>
    <line x1="94.88" y1="-4.97" x2="93.84" y2="-9.86" stroke="blue" stroke-width="1"/>
    <line x1="93.84" y1="-9.86" x2="92.30" y2="-14.62" stroke="blue" stroke-width="1"/>
    <line x1="92.30" y1="-14.62" x2="90.26" y2="-19.19" stroke="blue" stroke-width="1"/>
    <line x1="90.26" y1="-19.19" x2="87.76" y2="-23.52" stroke="blue" stroke-width="1"/>
    <line x1="87.76" y1="-23.52" x2="84.83" y2="-27.56" stroke="blue" stroke-width="1"/>
    <line x1="84.83" y1="-27.56" x2="81.48" y2="-31.28" stroke="blue" stroke-width="1"/>
    <line x1="81.48" y1="-31.28" x2="77.76" y2="-34.62" stroke="blue" stroke-width="1"/>
    <line x1="77.76" y1="-34.62" x2="73.72" y2="-37.56" stroke="blue" stroke-width="1"/>
    <line x1="73.72" y1="-37.56" x2="69.39" y2="-40.06" stroke="blue" stroke-width="1"/>
    <line x1="69.39" y1="-40.06" x2="64.82" y2="-42.10" stroke="blue" stroke-width="1"/>
    <line x1="64.82" y1="-42.10" x2="60.07" y2="-43.64" stroke="blue" stroke-width="1"/>
    <line x1="60.07" y1="-43.64" x2="55.18" y2="-44.68" stroke="blue" stroke-width="1"/>
    <line x1="55.18" y1="-44.68" x2="50.20" y2="-45.20" stroke="blue" stroke-width="1"/>
    <line x1="50.20" y1="-45.20" x2="45.20" y2="-45.20" stroke="blue" stroke-width="1"/>
    <line x1="45.20" y1="-45.20" x2="40.23" y2="-44.68" stroke="blue" stroke-width="1"/>
    <line x1="40.23" y1="-44.68" x2="35.34" y2="-43.64" stroke="blue" stroke-width="1"/>
    <line x1="35.34" y1="-43.64" x2="30.58" y2="-42.10" stroke="blue" stroke-width="1"/>
    <line x1="30.58" y1="-42.10" x2="26.02" y2="-40.06" stroke="blue" stroke-width="1"/>
    <line x1="26.02" y1="-40.06" x2="21.69" y2="-37.56" stroke="blue" stroke-width="1"/>
    <line x1="21.69" y1="-37.56" x2="17.64" y2="-34.62" stroke="blue" stroke-width="1"/>
    <line x1="17.64" y1="-34.62" x2="13.93" y2="-31.28" stroke="blue" stroke-width="1"/>
    <line x1="13.93" y1="-31.28" x2="10.58" y2="-27.56" stroke="blue" stroke-width="1"/>
    <line x1="10.58" y1="-27.56" x2="7.64" y2="-23.52" stroke="blue" stroke-width="1"/>
    <line x1="7.64" y1="-23.52" x2="5.14" y2="-19.19" stroke="blue" stroke-width="1"/>
    <line x1="5.14" y1="-19.19" x2="3.11" y2="-14.62" stroke="blue" stroke-width="1"/>
    <line x1="3.11" y1="-14.62" x2="1.56" y2="-9.86" stroke="blue" stroke-width="1"/>
    <line x1="1.56" y1="-9.86" x2="0.52" y2="-4.97" stroke="blue" stroke-width="1"/>
    <line x1="0.52" y1="-4.97" x2="0.00" y2="0.00" stroke="blue" stroke-width="1"/>
    <line x1="0.00" y1="0.00" x2="0.00" y2="5.00" stroke="purple" stroke-width="1"/>
    <line x1="0.00" y1="5.00" x2="0.52" y2="9.97" stroke="purple" stroke-width="1"/>
    <line x1="0.52" y1="9.97" x2="1.56" y2="14.86" stroke="purple" stroke-width="1"/>
    <line x1="1.56" y1="14.86" x2="3.11" y2="19.62" stroke="purple" stroke-width="1"/>
    <line x1="3.11" y1="19.62" x2="5.14" y2="24.19" stroke="purple" stroke-width="1"/>
    <line x1="5.14" y1="24.19" x2="7.64" y2="28.52" stroke="purple" stroke-width="1"/>
    <line x1="7.64" y1="28.52" x2="10.58" y2="32.56" stroke="purple" stroke-width="1"/>
    <line x1="10.58" y1="32.56" x2="13.93" y2="36.28" stroke="purple" stroke-width="1"/>
    <line x1="13.93" y1="36.28" x2="17.64" y2="39.62" stroke="purple" stroke-width="1"/>
    <line x1="17.64" y1="39.62" x2="21.69" y2="42.56" stroke="purple" stroke-width="1"/>
    <line x1="21.69" y1="42.56" x2="26.02" y2="45.06" stroke="purple" stroke-width="1"/>
    <line x1="26.02" y1="45.06" x2="30.58" y2="47.10" stroke="purple" stroke-width="1"/>
    <line x1="30.58" y1="47.10" x2="35.34" y2="48.64" stroke="purple" stroke-width="1"/>
    <line x1="35.34" y1="48.64" x2="40.23" y2="49.68" stroke="purple" stroke-width="1"/>
    <line x1="40.23" y1="49.68" x2="45.20" y2="50.20" stroke="purple" stroke-width="1"/>
    <line x1="45.20" y1="50.20" x2="50.20" y2="50.20" stroke="purple" stroke-width="1"/>
    <line x1="50.20" y1="50.20" x2="55.18" y2="49.68" stroke="purple" stroke-width="1"/>
    <line x1="55.18" y1="49.68" x2="60.07" y2="48.64" stroke="purple" stroke-width="1"/>
    <line x1="60.07" y1="48.64" x2="64.82" y2="47.10" stroke="purple" stroke-width="1"/>
    <line x1="64.82" y1="47.10" x2="69.39" y2="45.06" stroke="purple" stroke-width="1"/>
    <line x1="69.39" y1="45.06" x2="73.72" y2="42.56" stroke="purple" stroke-width="1"/>
    <line x1="73.72" y1="42.56" x2="77.76" y2="39.62" stroke="purple" stroke-width="1"/>
    <line x1="77.76" y1="39.62" x2="81.48" y2="36.28" stroke="purple" stroke-width="1"/>
    <line x1="81.48" y1="36.28" x2="84.83" y2="32.56" stroke="purple" stroke-width="1"/>
    <line x1="84.83" y1="32.56" x2="87.76" y2="28.52" stroke="purple" stroke-width="1"/>
    <line x1="87.76" y1="28.52" x2="90.26" y2="24.19" stroke="purple" stroke-width="1"/>
    <line x1="90.26" y1="24.19" x2="92.30" y2="19.62" stroke="purple" stroke-width="1"/>
    <line x1="92.30" y1="19.62" x2="93.84" y2="14.86" stroke="purple" stroke-width="1"/>
    <line x1="93.84" y1="14.86" x2="94.88" y2="9.97" stroke="purple" stroke-width="1"/>
    <line x1="94.88" y1="9.97" x2="95.41" y2="5.00" stroke="purple" stroke-width="1"/>
    <line x1="95.41" y1="5.00" x2="95.41" y2="0.00" stroke="purple" stroke-width="1"/>
    <line x1="95.41" y1="0.00" x2="94.88" y2="-4.97" stroke="purple" stroke-width="1"/>
    <line x1="94.88" y1="-4.97" x2="93.84" y2="-9.86" stroke="purple" stroke-width="1"/>
    <line x1="93.84" y1="-9.86" x2="92.30" y2="-14.62" stroke="purple" stroke-width="1"/>
    <line x1="92.30" y1="-14.62" x2="90.26" y2="-19.19" stroke="purple" stroke-width="1"/>
    <line x1="90.26" y1="-19.19" x2="87.76" y2="-23.52" stroke="purple" stroke-width="1"/>
    <line x1="87.76" y1="-23.52" x2="84.83" y2="-27.56" stroke="purple" stroke-width="1"/>
    <line x1="84.83" y1="-27.56" x2="81.48" y2="-31.28" stroke="purple" stroke-width="1"/>
    <line x1="81.48" y1="-31.28" x2="77.76" y2="-34.62" stroke="purple" stroke-width="1"/>
    <line x1="77.76" y1="-34.62" x2="73.72" y2="-37.56" stroke="purple" stroke-width="1"/>
    <line x1="73.72" y1="-37.56" x2="69.39" y2="-40.06" stroke="purple" stroke-width="1"/>
    <line x1="69.39" y1="-40.06" x2="64.82" y2="-42.10" stroke="purple" stroke-width="1"/>
    <line x1="64.82" y1="-42.10" x2="60.07" y2="-43.64" stroke="purple" stroke-width="1"/>
    <line x1="60.07" y1="-43.64" x2="55.18" y2="-44.68" stroke="purple" stroke-width="1"/>
    <line x1="55.18" y1="-44.68" x2="50.20" y2="-45.20" stroke="purple" stroke-width="1"/>
    <line x1="50.20" y1="-45.20" x2="45.20" y2="-45.20" stroke="purple" stroke-width="1"/>
    <line x1="45.20" y1="-45.20" x2="40.23" y2="-44.68" stroke="purple" stroke-width="1"/>
    <line x1="40.23" y1="-44.68" x2="35.34" y2="-43.64" stroke="purple" stroke-width="1"/>
    <line x1="35.34" y1="-43.64" x2="30.58" y2="-42.10" stroke="purple" stroke-width="1"/>
    <line x1="30.58" y1="-42.10" x2="26.02" y2="-40.06" stroke="purple" stroke-width="1"/>
    <line x1="26.02" y1="-40.06" x2="21.69" y2="-37.56" stroke="purple" stroke-width="1"/>
    <line x1="21.69" y1="-37.56" x2="17.64" y2="-34.62" stroke="purple" stroke-width="1"/>
    <line x1="17.64" y1="-34.62" x2="13.93" y2="-31.28" stroke="purple" stroke-width="1"/>
    <line x1="13.93" y1="-31.28" x2="10.58" y2="-27.56" stroke="purple" stroke-width="1"/>
    <line x1="10.58" y1="-27.56" x2="7.64" y2="-23.52" stroke="purple" stroke-width="1"/>
    <line x1="7.64" y1="-23.52" x2="5.14" y2="-19.19" stroke="purple" stroke-width="1"/>
    <line x1="5.14" y1="-19.19" x2="3.11" y2="-14.62" stroke="purple" stroke-width="1"/>
    <line x1="3.11" y1="-14.62" x2="1.56" y2="-9.86" stroke="purple" stroke-width="1"/>
    <line x1="1.56" y1="-9.86" x2="0.52" y2="-4.97" stroke="purple" stroke-width="1"/>
    <line x1="0.52" y1="-4.97" x2="0.00" y2="0.00" stroke="purple" stroke-width="1"/>
  </g>
</svg>